<?xml version="1.0" encoding="UTF-8" standalone="no"?>
<!DOCTYPE svg PUBLIC "-//W3C//DTD SVG 1.1//EN"
 "http://www.w3.org/Graphics/SVG/1.1/DTD/svg11.dtd">
<!-- Generated by graphviz version 2.40.1 (20161225.0304)
 -->
<!-- Title: %3 Pages: 1 -->
<svg width="1829pt" height="548pt"
 viewBox="0.00 0.00 1828.94 548.00" xmlns="http://www.w3.org/2000/svg" xmlns:xlink="http://www.w3.org/1999/xlink">
<g id="graph0" class="graph" transform="scale(1 1) rotate(0) translate(4 544)">
<title>%3</title>
<polygon fill="#ffffff" stroke="transparent" points="-4,4 -4,-544 1824.9394,-544 1824.9394,4 -4,4"/>
<!-- EU -->
<g id="node1" class="node">
<title>EU</title>
<ellipse fill="none" stroke="#000000" cx="1744" cy="-306" rx="27" ry="18"/>
<text text-anchor="middle" x="1744" y="-302.3" font-family="Times,serif" font-size="14.00" fill="#000000">EU</text>
</g>
<!-- UW -->
<g id="node2" class="node">
<title>UW</title>
<ellipse fill="none" stroke="#000000" cx="1385" cy="-234" rx="27" ry="18"/>
<text text-anchor="middle" x="1385" y="-230.3" font-family="Times,serif" font-size="14.00" fill="#000000">UW</text>
</g>
<!-- EU&#45;&#45;UW -->
<g id="edge1" class="edge">
<title>EU&#45;&#45;UW</title>
<path fill="none" stroke="#000000" d="M1717.8924,-300.7639C1651.5769,-287.4639 1477.2188,-252.4951 1411.0097,-239.2164"/>
</g>
<!-- NC -->
<g id="node3" class="node">
<title>NC</title>
<ellipse fill="none" stroke="#000000" cx="1780" cy="-378" rx="27" ry="18"/>
<text text-anchor="middle" x="1780" y="-374.3" font-family="Times,serif" font-size="14.00" fill="#000000">NC</text>
</g>
<!-- NC&#45;&#45;EU -->
<g id="edge2" class="edge">
<title>NC&#45;&#45;EU</title>
<path fill="none" stroke="#000000" d="M1771.2854,-360.5708C1765.6253,-349.2506 1758.2784,-334.5568 1752.6343,-323.2687"/>
</g>
<!-- UQ -->
<g id="node4" class="node">
<title>UQ</title>
<ellipse fill="none" stroke="#000000" cx="51" cy="-90" rx="27" ry="18"/>
<text text-anchor="middle" x="51" y="-86.3" font-family="Times,serif" font-size="14.00" fill="#000000">UQ</text>
</g>
<!-- IE -->
<g id="node5" class="node">
<title>IE</title>
<ellipse fill="none" stroke="#000000" cx="150" cy="-18" rx="27" ry="18"/>
<text text-anchor="middle" x="150" y="-14.3" font-family="Times,serif" font-size="14.00" fill="#000000">IE</text>
</g>
<!-- UQ&#45;&#45;IE -->
<g id="edge3" class="edge">
<title>UQ&#45;&#45;IE</title>
<path fill="none" stroke="#000000" d="M69.6211,-76.4574C87.3208,-63.5849 113.7904,-44.3343 131.4624,-31.4819"/>
</g>
<!-- KF -->
<g id="node6" class="node">
<title>KF</title>
<ellipse fill="none" stroke="#000000" cx="789" cy="-378" rx="27" ry="18"/>
<text text-anchor="middle" x="789" y="-374.3" font-family="Times,serif" font-size="14.00" fill="#000000">KF</text>
</g>
<!-- IK -->
<g id="node7" class="node">
<title>IK</title>
<ellipse fill="none" stroke="#000000" cx="751" cy="-306" rx="27" ry="18"/>
<text text-anchor="middle" x="751" y="-302.3" font-family="Times,serif" font-size="14.00" fill="#000000">IK</text>
</g>
<!-- KF&#45;&#45;IK -->
<g id="edge4" class="edge">
<title>KF&#45;&#45;IK</title>
<path fill="none" stroke="#000000" d="M779.9945,-360.937C774.0248,-349.626 766.2149,-334.8282 760.2048,-323.4407"/>
</g>
<!-- YB -->
<g id="node8" class="node">
<title>YB</title>
<ellipse fill="none" stroke="#000000" cx="823" cy="-306" rx="27" ry="18"/>
<text text-anchor="middle" x="823" y="-302.3" font-family="Times,serif" font-size="14.00" fill="#000000">YB</text>
</g>
<!-- KF&#45;&#45;YB -->
<g id="edge5" class="edge">
<title>KF&#45;&#45;YB</title>
<path fill="none" stroke="#000000" d="M797.2305,-360.5708C802.5761,-349.2506 809.5148,-334.5568 814.8453,-323.2687"/>
</g>
<!-- VI -->
<g id="node9" class="node">
<title>VI</title>
<ellipse fill="none" stroke="#000000" cx="967" cy="-306" rx="27" ry="18"/>
<text text-anchor="middle" x="967" y="-302.3" font-family="Times,serif" font-size="14.00" fill="#000000">VI</text>
</g>
<!-- KF&#45;&#45;VI -->
<g id="edge6" class="edge">
<title>KF&#45;&#45;VI</title>
<path fill="none" stroke="#000000" d="M813.1642,-369.6458C841.6615,-359.6024 890.3038,-341.8584 931,-324 935.7351,-321.9221 940.7407,-319.5415 945.4649,-317.2068"/>
</g>
<!-- XY -->
<g id="node10" class="node">
<title>XY</title>
<ellipse fill="none" stroke="#000000" cx="1403" cy="-306" rx="27" ry="18"/>
<text text-anchor="middle" x="1403" y="-302.3" font-family="Times,serif" font-size="14.00" fill="#000000">XY</text>
</g>
<!-- BA -->
<g id="node11" class="node">
<title>BA</title>
<ellipse fill="none" stroke="#000000" cx="1294" cy="-234" rx="27" ry="18"/>
<text text-anchor="middle" x="1294" y="-230.3" font-family="Times,serif" font-size="14.00" fill="#000000">BA</text>
</g>
<!-- XY&#45;&#45;BA -->
<g id="edge7" class="edge">
<title>XY&#45;&#45;BA</title>
<path fill="none" stroke="#000000" d="M1383.7639,-293.2936C1363.9621,-280.2135 1333.2758,-259.9437 1313.4104,-246.8216"/>
</g>
<!-- VC -->
<g id="node12" class="node">
<title>VC</title>
<ellipse fill="none" stroke="#000000" cx="27" cy="-162" rx="27" ry="18"/>
<text text-anchor="middle" x="27" y="-158.3" font-family="Times,serif" font-size="14.00" fill="#000000">VC</text>
</g>
<!-- VC&#45;&#45;UQ -->
<g id="edge8" class="edge">
<title>VC&#45;&#45;UQ</title>
<path fill="none" stroke="#000000" d="M32.9326,-144.2022C36.6527,-133.0419 41.4286,-118.7143 45.1357,-107.593"/>
</g>
<!-- NW -->
<g id="node13" class="node">
<title>NW</title>
<ellipse fill="none" stroke="#000000" cx="391" cy="-378" rx="27" ry="18"/>
<text text-anchor="middle" x="391" y="-374.3" font-family="Times,serif" font-size="14.00" fill="#000000">NW</text>
</g>
<!-- WU -->
<g id="node14" class="node">
<title>WU</title>
<ellipse fill="none" stroke="#000000" cx="391" cy="-306" rx="27" ry="18"/>
<text text-anchor="middle" x="391" y="-302.3" font-family="Times,serif" font-size="14.00" fill="#000000">WU</text>
</g>
<!-- NW&#45;&#45;WU -->
<g id="edge9" class="edge">
<title>NW&#45;&#45;WU</title>
<path fill="none" stroke="#000000" d="M391,-359.8314C391,-349 391,-335.2876 391,-324.4133"/>
</g>
<!-- SO -->
<g id="node15" class="node">
<title>SO</title>
<ellipse fill="none" stroke="#000000" cx="535" cy="-306" rx="27" ry="18"/>
<text text-anchor="middle" x="535" y="-302.3" font-family="Times,serif" font-size="14.00" fill="#000000">SO</text>
</g>
<!-- NW&#45;&#45;SO -->
<g id="edge10" class="edge">
<title>NW&#45;&#45;SO</title>
<path fill="none" stroke="#000000" d="M412.8705,-367.0647C440.0934,-353.4533 486.297,-330.3515 513.3955,-316.8022"/>
</g>
<!-- QL -->
<g id="node16" class="node">
<title>QL</title>
<ellipse fill="none" stroke="#000000" cx="1564" cy="-378" rx="27" ry="18"/>
<text text-anchor="middle" x="1564" y="-374.3" font-family="Times,serif" font-size="14.00" fill="#000000">QL</text>
</g>
<!-- KQ -->
<g id="node17" class="node">
<title>KQ</title>
<ellipse fill="none" stroke="#000000" cx="1600" cy="-306" rx="27" ry="18"/>
<text text-anchor="middle" x="1600" y="-302.3" font-family="Times,serif" font-size="14.00" fill="#000000">KQ</text>
</g>
<!-- QL&#45;&#45;KQ -->
<g id="edge11" class="edge">
<title>QL&#45;&#45;KQ</title>
<path fill="none" stroke="#000000" d="M1572.7146,-360.5708C1578.3747,-349.2506 1585.7216,-334.5568 1591.3657,-323.2687"/>
</g>
<!-- ED -->
<g id="node18" class="node">
<title>ED</title>
<ellipse fill="none" stroke="#000000" cx="555" cy="-450" rx="27" ry="18"/>
<text text-anchor="middle" x="555" y="-446.3" font-family="Times,serif" font-size="14.00" fill="#000000">ED</text>
</g>
<!-- ED&#45;&#45;NW -->
<g id="edge13" class="edge">
<title>ED&#45;&#45;NW</title>
<path fill="none" stroke="#000000" d="M531.6804,-440.6894C505.8738,-430.2639 463.1494,-412.6417 427,-396 422.3029,-393.8377 417.3133,-391.4214 412.5927,-389.0787"/>
</g>
<!-- MO -->
<g id="node19" class="node">
<title>MO</title>
<ellipse fill="none" stroke="#000000" cx="895" cy="-306" rx="27" ry="18"/>
<text text-anchor="middle" x="895" y="-302.3" font-family="Times,serif" font-size="14.00" fill="#000000">MO</text>
</g>
<!-- ED&#45;&#45;MO -->
<g id="edge12" class="edge">
<title>ED&#45;&#45;MO</title>
<path fill="none" stroke="#000000" d="M580.0492,-442.9804C618.9514,-431.8405 691.8302,-409.9497 715,-396 734.9309,-384.0003 733.0805,-372.0187 753,-360 795.6003,-334.2965 813.0873,-343.1698 859,-324 863.7717,-322.0077 868.7928,-319.6632 873.5204,-317.3365"/>
</g>
<!-- SX -->
<g id="node20" class="node">
<title>SX</title>
<ellipse fill="none" stroke="#000000" cx="1238" cy="-378" rx="27" ry="18"/>
<text text-anchor="middle" x="1238" y="-374.3" font-family="Times,serif" font-size="14.00" fill="#000000">SX</text>
</g>
<!-- SX&#45;&#45;UW -->
<g id="edge14" class="edge">
<title>SX&#45;&#45;UW</title>
<path fill="none" stroke="#000000" d="M1245.8635,-360.7529C1255.3755,-341.301 1272.8976,-309.575 1295,-288 1314.8198,-268.6532 1342.8321,-253.2436 1362.3211,-243.9163"/>
</g>
<!-- OA -->
<g id="node21" class="node">
<title>OA</title>
<ellipse fill="none" stroke="#000000" cx="1221" cy="-306" rx="27" ry="18"/>
<text text-anchor="middle" x="1221" y="-302.3" font-family="Times,serif" font-size="14.00" fill="#000000">OA</text>
</g>
<!-- SX&#45;&#45;OA -->
<g id="edge15" class="edge">
<title>SX&#45;&#45;OA</title>
<path fill="none" stroke="#000000" d="M1233.7978,-360.2022C1231.1823,-349.1252 1227.8302,-334.928 1225.2128,-323.8425"/>
</g>
<!-- MJ -->
<g id="node22" class="node">
<title>MJ</title>
<ellipse fill="none" stroke="#000000" cx="1331" cy="-306" rx="27" ry="18"/>
<text text-anchor="middle" x="1331" y="-302.3" font-family="Times,serif" font-size="14.00" fill="#000000">MJ</text>
</g>
<!-- SX&#45;&#45;MJ -->
<g id="edge16" class="edge">
<title>SX&#45;&#45;MJ</title>
<path fill="none" stroke="#000000" d="M1255.9313,-364.1177C1272.3995,-351.3681 1296.6729,-332.5758 1313.1237,-319.8397"/>
</g>
<!-- ZU -->
<g id="node23" class="node">
<title>ZU</title>
<ellipse fill="none" stroke="#000000" cx="319" cy="-162" rx="27" ry="18"/>
<text text-anchor="middle" x="319" y="-158.3" font-family="Times,serif" font-size="14.00" fill="#000000">ZU</text>
</g>
<!-- ZU&#45;&#45;IE -->
<g id="edge18" class="edge">
<title>ZU&#45;&#45;IE</title>
<path fill="none" stroke="#000000" d="M320.0627,-143.8618C320.2324,-123.8966 317.4129,-91.9882 300,-72 268.4569,-35.7917 210.7709,-23.8591 176.8664,-19.9286"/>
</g>
<!-- JB -->
<g id="node24" class="node">
<title>JB</title>
<ellipse fill="none" stroke="#000000" cx="264" cy="-90" rx="27" ry="18"/>
<text text-anchor="middle" x="264" y="-86.3" font-family="Times,serif" font-size="14.00" fill="#000000">JB</text>
</g>
<!-- ZU&#45;&#45;JB -->
<g id="edge17" class="edge">
<title>ZU&#45;&#45;JB</title>
<path fill="none" stroke="#000000" d="M306.5196,-145.6621C297.5186,-133.8788 285.4207,-118.0416 276.431,-106.2733"/>
</g>
<!-- KJ -->
<g id="node25" class="node">
<title>KJ</title>
<ellipse fill="none" stroke="#000000" cx="169" cy="-90" rx="27" ry="18"/>
<text text-anchor="middle" x="169" y="-86.3" font-family="Times,serif" font-size="14.00" fill="#000000">KJ</text>
</g>
<!-- ZU&#45;&#45;KJ -->
<g id="edge19" class="edge">
<title>ZU&#45;&#45;KJ</title>
<path fill="none" stroke="#000000" d="M296.867,-151.3762C268.507,-137.7634 219.6275,-114.3012 191.2238,-100.6674"/>
</g>
<!-- HN -->
<g id="node26" class="node">
<title>HN</title>
<ellipse fill="none" stroke="#000000" cx="27" cy="-234" rx="27" ry="18"/>
<text text-anchor="middle" x="27" y="-230.3" font-family="Times,serif" font-size="14.00" fill="#000000">HN</text>
</g>
<!-- HN&#45;&#45;VC -->
<g id="edge20" class="edge">
<title>HN&#45;&#45;VC</title>
<path fill="none" stroke="#000000" d="M27,-215.8314C27,-205 27,-191.2876 27,-180.4133"/>
</g>
<!-- DN -->
<g id="node27" class="node">
<title>DN</title>
<ellipse fill="none" stroke="#000000" cx="391" cy="-234" rx="27" ry="18"/>
<text text-anchor="middle" x="391" y="-230.3" font-family="Times,serif" font-size="14.00" fill="#000000">DN</text>
</g>
<!-- DN&#45;&#45;ZU -->
<g id="edge21" class="edge">
<title>DN&#45;&#45;ZU</title>
<path fill="none" stroke="#000000" d="M375.7307,-218.7307C363.512,-206.512 346.4602,-189.4602 334.2473,-177.2473"/>
</g>
<!-- TZ -->
<g id="node28" class="node">
<title>TZ</title>
<ellipse fill="none" stroke="#000000" cx="1636" cy="-378" rx="27" ry="18"/>
<text text-anchor="middle" x="1636" y="-374.3" font-family="Times,serif" font-size="14.00" fill="#000000">TZ</text>
</g>
<!-- TZ&#45;&#45;KQ -->
<g id="edge22" class="edge">
<title>TZ&#45;&#45;KQ</title>
<path fill="none" stroke="#000000" d="M1627.2854,-360.5708C1621.6253,-349.2506 1614.2784,-334.5568 1608.6343,-323.2687"/>
</g>
<!-- RY -->
<g id="node29" class="node">
<title>RY</title>
<ellipse fill="none" stroke="#000000" cx="1708" cy="-378" rx="27" ry="18"/>
<text text-anchor="middle" x="1708" y="-374.3" font-family="Times,serif" font-size="14.00" fill="#000000">RY</text>
</g>
<!-- RY&#45;&#45;EU -->
<g id="edge23" class="edge">
<title>RY&#45;&#45;EU</title>
<path fill="none" stroke="#000000" d="M1716.7146,-360.5708C1722.3747,-349.2506 1729.7216,-334.5568 1735.3657,-323.2687"/>
</g>
<!-- MH -->
<g id="node30" class="node">
<title>MH</title>
<ellipse fill="none" stroke="#000000" cx="209" cy="-306" rx="27" ry="18"/>
<text text-anchor="middle" x="209" y="-302.3" font-family="Times,serif" font-size="14.00" fill="#000000">MH</text>
</g>
<!-- MH&#45;&#45;JB -->
<g id="edge24" class="edge">
<title>MH&#45;&#45;JB</title>
<path fill="none" stroke="#000000" d="M222.5436,-290.0904C230.456,-279.8797 239.8669,-265.959 245,-252 263.2761,-202.2995 264.99,-138.7676 264.5863,-108.1306"/>
</g>
<!-- VS -->
<g id="node31" class="node">
<title>VS</title>
<ellipse fill="none" stroke="#000000" cx="137" cy="-234" rx="27" ry="18"/>
<text text-anchor="middle" x="137" y="-230.3" font-family="Times,serif" font-size="14.00" fill="#000000">VS</text>
</g>
<!-- MH&#45;&#45;VS -->
<g id="edge25" class="edge">
<title>MH&#45;&#45;VS</title>
<path fill="none" stroke="#000000" d="M193.7307,-290.7307C181.512,-278.512 164.4602,-261.4602 152.2473,-249.2473"/>
</g>
<!-- KU -->
<g id="node32" class="node">
<title>KU</title>
<ellipse fill="none" stroke="#000000" cx="209" cy="-234" rx="27" ry="18"/>
<text text-anchor="middle" x="209" y="-230.3" font-family="Times,serif" font-size="14.00" fill="#000000">KU</text>
</g>
<!-- MH&#45;&#45;KU -->
<g id="edge26" class="edge">
<title>MH&#45;&#45;KU</title>
<path fill="none" stroke="#000000" d="M209,-287.8314C209,-277 209,-263.2876 209,-252.4133"/>
</g>
<!-- FF -->
<g id="node33" class="node">
<title>FF</title>
<ellipse fill="none" stroke="#000000" cx="1166" cy="-378" rx="27" ry="18"/>
<text text-anchor="middle" x="1166" y="-374.3" font-family="Times,serif" font-size="14.00" fill="#000000">FF</text>
</g>
<!-- FF&#45;&#45;VI -->
<g id="edge29" class="edge">
<title>FF&#45;&#45;VI</title>
<path fill="none" stroke="#000000" d="M1144.9784,-366.6651C1140.1358,-364.2865 1134.9514,-361.9201 1130,-360 1075.3005,-338.7883 1057.6995,-345.2117 1003,-324 998.0486,-322.0799 992.8642,-319.7135 988.0216,-317.3349"/>
</g>
<!-- FF&#45;&#45;BA -->
<g id="edge27" class="edge">
<title>FF&#45;&#45;BA</title>
<path fill="none" stroke="#000000" d="M1165.3759,-359.8625C1165.6299,-340.1931 1168.8563,-308.8249 1185,-288 1205.7021,-261.2948 1243.1047,-246.8774 1268.2454,-239.8197"/>
</g>
<!-- FF&#45;&#45;OA -->
<g id="edge28" class="edge">
<title>FF&#45;&#45;OA</title>
<path fill="none" stroke="#000000" d="M1178.4804,-361.6621C1187.4814,-349.8788 1199.5793,-334.0416 1208.569,-322.2733"/>
</g>
<!-- SZ -->
<g id="node34" class="node">
<title>SZ</title>
<ellipse fill="none" stroke="#000000" cx="1111" cy="-306" rx="27" ry="18"/>
<text text-anchor="middle" x="1111" y="-302.3" font-family="Times,serif" font-size="14.00" fill="#000000">SZ</text>
</g>
<!-- FF&#45;&#45;SZ -->
<g id="edge30" class="edge">
<title>FF&#45;&#45;SZ</title>
<path fill="none" stroke="#000000" d="M1153.5196,-361.6621C1144.5186,-349.8788 1132.4207,-334.0416 1123.431,-322.2733"/>
</g>
<!-- NK -->
<g id="node35" class="node">
<title>NK</title>
<ellipse fill="none" stroke="#000000" cx="309" cy="-378" rx="27" ry="18"/>
<text text-anchor="middle" x="309" y="-374.3" font-family="Times,serif" font-size="14.00" fill="#000000">NK</text>
</g>
<!-- NK&#45;&#45;MH -->
<g id="edge32" class="edge">
<title>NK&#45;&#45;MH</title>
<path fill="none" stroke="#000000" d="M290.1908,-364.4574C272.1992,-351.5034 245.2366,-332.0903 227.387,-319.2387"/>
</g>
<!-- JF -->
<g id="node36" class="node">
<title>JF</title>
<ellipse fill="none" stroke="#000000" cx="319" cy="-306" rx="27" ry="18"/>
<text text-anchor="middle" x="319" y="-302.3" font-family="Times,serif" font-size="14.00" fill="#000000">JF</text>
</g>
<!-- NK&#45;&#45;JF -->
<g id="edge31" class="edge">
<title>NK&#45;&#45;JF</title>
<path fill="none" stroke="#000000" d="M311.5234,-359.8314C313.0278,-349 314.9323,-335.2876 316.4426,-324.4133"/>
</g>
<!-- PG -->
<g id="node37" class="node">
<title>PG</title>
<ellipse fill="none" stroke="#000000" cx="753" cy="-450" rx="27" ry="18"/>
<text text-anchor="middle" x="753" y="-446.3" font-family="Times,serif" font-size="14.00" fill="#000000">PG</text>
</g>
<!-- PG&#45;&#45;KF -->
<g id="edge33" class="edge">
<title>PG&#45;&#45;KF</title>
<path fill="none" stroke="#000000" d="M761.7146,-432.5708C767.3747,-421.2506 774.7216,-406.5568 780.3657,-395.2687"/>
</g>
<!-- PN -->
<g id="node38" class="node">
<title>PN</title>
<ellipse fill="none" stroke="#000000" cx="1310" cy="-378" rx="27" ry="18"/>
<text text-anchor="middle" x="1310" y="-374.3" font-family="Times,serif" font-size="14.00" fill="#000000">PN</text>
</g>
<!-- PN&#45;&#45;XY -->
<g id="edge34" class="edge">
<title>PN&#45;&#45;XY</title>
<path fill="none" stroke="#000000" d="M1327.9313,-364.1177C1344.3995,-351.3681 1368.6729,-332.5758 1385.1237,-319.8397"/>
</g>
<!-- PN&#45;&#45;MJ -->
<g id="edge35" class="edge">
<title>PN&#45;&#45;MJ</title>
<path fill="none" stroke="#000000" d="M1315.191,-360.2022C1318.4218,-349.1252 1322.5627,-334.928 1325.7959,-323.8425"/>
</g>
<!-- UX -->
<g id="node39" class="node">
<title>UX</title>
<ellipse fill="none" stroke="#000000" cx="463" cy="-306" rx="27" ry="18"/>
<text text-anchor="middle" x="463" y="-302.3" font-family="Times,serif" font-size="14.00" fill="#000000">UX</text>
</g>
<!-- UX&#45;&#45;DN -->
<g id="edge36" class="edge">
<title>UX&#45;&#45;DN</title>
<path fill="none" stroke="#000000" d="M447.7307,-290.7307C435.512,-278.512 418.4602,-261.4602 406.2473,-249.2473"/>
</g>
<!-- WZ -->
<g id="node40" class="node">
<title>WZ</title>
<ellipse fill="none" stroke="#000000" cx="1454" cy="-378" rx="27" ry="18"/>
<text text-anchor="middle" x="1454" y="-374.3" font-family="Times,serif" font-size="14.00" fill="#000000">WZ</text>
</g>
<!-- WZ&#45;&#45;XY -->
<g id="edge37" class="edge">
<title>WZ&#45;&#45;XY</title>
<path fill="none" stroke="#000000" d="M1442.4273,-361.6621C1434.1984,-350.0448 1423.1783,-334.4869 1414.8808,-322.7729"/>
</g>
<!-- DG -->
<g id="node41" class="node">
<title>DG</title>
<ellipse fill="none" stroke="#000000" cx="1382" cy="-378" rx="27" ry="18"/>
<text text-anchor="middle" x="1382" y="-374.3" font-family="Times,serif" font-size="14.00" fill="#000000">DG</text>
</g>
<!-- DG&#45;&#45;XY -->
<g id="edge38" class="edge">
<title>DG&#45;&#45;XY</title>
<path fill="none" stroke="#000000" d="M1387.191,-360.2022C1390.4218,-349.1252 1394.5627,-334.928 1397.7959,-323.8425"/>
</g>
<!-- UL -->
<g id="node42" class="node">
<title>UL</title>
<ellipse fill="none" stroke="#000000" cx="1532" cy="-450" rx="27" ry="18"/>
<text text-anchor="middle" x="1532" y="-446.3" font-family="Times,serif" font-size="14.00" fill="#000000">UL</text>
</g>
<!-- UL&#45;&#45;RY -->
<g id="edge39" class="edge">
<title>UL&#45;&#45;RY</title>
<path fill="none" stroke="#000000" d="M1556.0636,-441.5122C1584.1831,-431.4118 1631.9651,-413.6814 1672,-396 1676.7301,-393.9109 1681.7337,-391.5256 1686.4574,-389.1898"/>
</g>
<!-- UL&#45;&#45;FF -->
<g id="edge40" class="edge">
<title>UL&#45;&#45;FF</title>
<path fill="none" stroke="#000000" d="M1505.9763,-445.083C1486.0285,-441.3591 1457.8048,-436.1871 1433,-432 1330.5435,-414.705 1300.9808,-427.6107 1202,-396 1196.9411,-394.3844 1191.713,-392.1416 1186.8621,-389.7864"/>
</g>
<!-- AA -->
<g id="node43" class="node">
<title>AA</title>
<ellipse fill="none" stroke="#000000" cx="679" cy="-306" rx="27" ry="18"/>
<text text-anchor="middle" x="679" y="-302.3" font-family="Times,serif" font-size="14.00" fill="#000000">AA</text>
</g>
<!-- HR -->
<g id="node44" class="node">
<title>HR</title>
<ellipse fill="none" stroke="#000000" cx="895" cy="-234" rx="27" ry="18"/>
<text text-anchor="middle" x="895" y="-230.3" font-family="Times,serif" font-size="14.00" fill="#000000">HR</text>
</g>
<!-- AA&#45;&#45;HR -->
<g id="edge41" class="edge">
<title>AA&#45;&#45;HR</title>
<path fill="none" stroke="#000000" d="M700.0435,-294.721C704.885,-292.3395 710.0634,-289.9578 715,-288 768.6807,-266.7114 834.1788,-249.0467 869.4913,-240.1715"/>
</g>
<!-- XM -->
<g id="node45" class="node">
<title>XM</title>
<ellipse fill="none" stroke="#000000" cx="571" cy="-234" rx="27" ry="18"/>
<text text-anchor="middle" x="571" y="-230.3" font-family="Times,serif" font-size="14.00" fill="#000000">XM</text>
</g>
<!-- AA&#45;&#45;XM -->
<g id="edge42" class="edge">
<title>AA&#45;&#45;XM</title>
<path fill="none" stroke="#000000" d="M659.6918,-293.1278C640.0337,-280.0225 609.7386,-259.8257 590.1411,-246.7607"/>
</g>
<!-- GA -->
<g id="node46" class="node">
<title>GA</title>
<ellipse fill="none" stroke="#000000" cx="218" cy="-378" rx="27" ry="18"/>
<text text-anchor="middle" x="218" y="-374.3" font-family="Times,serif" font-size="14.00" fill="#000000">GA</text>
</g>
<!-- GA&#45;&#45;MH -->
<g id="edge43" class="edge">
<title>GA&#45;&#45;MH</title>
<path fill="none" stroke="#000000" d="M215.7289,-359.8314C214.375,-349 212.6609,-335.2876 211.3017,-324.4133"/>
</g>
<!-- GA&#45;&#45;XM -->
<g id="edge44" class="edge">
<title>GA&#45;&#45;XM</title>
<path fill="none" stroke="#000000" d="M225.5346,-360.6621C235.5169,-339.8809 255.1695,-305.6557 283,-288 305.0688,-273.9996 477.289,-247.6797 544.3765,-237.8406"/>
</g>
<!-- PW -->
<g id="node47" class="node">
<title>PW</title>
<ellipse fill="none" stroke="#000000" cx="535" cy="-378" rx="27" ry="18"/>
<text text-anchor="middle" x="535" y="-374.3" font-family="Times,serif" font-size="14.00" fill="#000000">PW</text>
</g>
<!-- PW&#45;&#45;SO -->
<g id="edge45" class="edge">
<title>PW&#45;&#45;SO</title>
<path fill="none" stroke="#000000" d="M535,-359.8314C535,-349 535,-335.2876 535,-324.4133"/>
</g>
<!-- PW&#45;&#45;AA -->
<g id="edge46" class="edge">
<title>PW&#45;&#45;AA</title>
<path fill="none" stroke="#000000" d="M556.8705,-367.0647C584.0934,-353.4533 630.297,-330.3515 657.3955,-316.8022"/>
</g>
<!-- NQ -->
<g id="node48" class="node">
<title>NQ</title>
<ellipse fill="none" stroke="#000000" cx="1166" cy="-450" rx="27" ry="18"/>
<text text-anchor="middle" x="1166" y="-446.3" font-family="Times,serif" font-size="14.00" fill="#000000">NQ</text>
</g>
<!-- NQ&#45;&#45;WZ -->
<g id="edge48" class="edge">
<title>NQ&#45;&#45;WZ</title>
<path fill="none" stroke="#000000" d="M1192.7211,-446.5398C1239.4014,-439.9998 1338.4135,-423.9174 1418,-396 1423.0113,-394.2421 1428.22,-391.9416 1433.0672,-389.5755"/>
</g>
<!-- KD -->
<g id="node49" class="node">
<title>KD</title>
<ellipse fill="none" stroke="#000000" cx="1094" cy="-378" rx="27" ry="18"/>
<text text-anchor="middle" x="1094" y="-374.3" font-family="Times,serif" font-size="14.00" fill="#000000">KD</text>
</g>
<!-- NQ&#45;&#45;KD -->
<g id="edge47" class="edge">
<title>NQ&#45;&#45;KD</title>
<path fill="none" stroke="#000000" d="M1150.7307,-434.7307C1138.512,-422.512 1121.4602,-405.4602 1109.2473,-393.2473"/>
</g>
<!-- SA -->
<g id="node50" class="node">
<title>SA</title>
<ellipse fill="none" stroke="#000000" cx="1039" cy="-306" rx="27" ry="18"/>
<text text-anchor="middle" x="1039" y="-302.3" font-family="Times,serif" font-size="14.00" fill="#000000">SA</text>
</g>
<!-- SA&#45;&#45;HR -->
<g id="edge49" class="edge">
<title>SA&#45;&#45;HR</title>
<path fill="none" stroke="#000000" d="M1017.1295,-295.0647C989.9066,-281.4533 943.703,-258.3515 916.6045,-244.8022"/>
</g>
<!-- QW -->
<g id="node51" class="node">
<title>QW</title>
<ellipse fill="none" stroke="#000000" cx="82" cy="-306" rx="27" ry="18"/>
<text text-anchor="middle" x="82" y="-302.3" font-family="Times,serif" font-size="14.00" fill="#000000">QW</text>
</g>
<!-- QW&#45;&#45;KJ -->
<g id="edge51" class="edge">
<title>QW&#45;&#45;KJ</title>
<path fill="none" stroke="#000000" d="M84.2507,-287.9893C86.9155,-269.5127 92.1483,-240.1389 101,-216 116.1474,-174.6922 142.8557,-130.272 157.8972,-106.7901"/>
</g>
<!-- QW&#45;&#45;HN -->
<g id="edge52" class="edge">
<title>QW&#45;&#45;HN</title>
<path fill="none" stroke="#000000" d="M69.5196,-289.6621C60.5186,-277.8788 48.4207,-262.0416 39.431,-250.2733"/>
</g>
<!-- QW&#45;&#45;VS -->
<g id="edge50" class="edge">
<title>QW&#45;&#45;VS</title>
<path fill="none" stroke="#000000" d="M94.4804,-289.6621C103.4814,-277.8788 115.5793,-262.0416 124.569,-250.2733"/>
</g>
<!-- SK -->
<g id="node52" class="node">
<title>SK</title>
<ellipse fill="none" stroke="#000000" cx="679" cy="-378" rx="27" ry="18"/>
<text text-anchor="middle" x="679" y="-374.3" font-family="Times,serif" font-size="14.00" fill="#000000">SK</text>
</g>
<!-- SK&#45;&#45;IK -->
<g id="edge53" class="edge">
<title>SK&#45;&#45;IK</title>
<path fill="none" stroke="#000000" d="M694.2693,-362.7307C706.488,-350.512 723.5398,-333.4602 735.7527,-321.2473"/>
</g>
<!-- SK&#45;&#45;AA -->
<g id="edge54" class="edge">
<title>SK&#45;&#45;AA</title>
<path fill="none" stroke="#000000" d="M679,-359.8314C679,-349 679,-335.2876 679,-324.4133"/>
</g>
<!-- YQ -->
<g id="node53" class="node">
<title>YQ</title>
<ellipse fill="none" stroke="#000000" cx="1102" cy="-522" rx="27" ry="18"/>
<text text-anchor="middle" x="1102" y="-518.3" font-family="Times,serif" font-size="14.00" fill="#000000">YQ</text>
</g>
<!-- YQ&#45;&#45;SZ -->
<g id="edge55" class="edge">
<title>YQ&#45;&#45;SZ</title>
<path fill="none" stroke="#000000" d="M1085.247,-507.299C1075.2332,-497.3467 1063.4324,-483.2671 1058,-468 1041.9087,-422.7775 1039.8386,-404.4316 1058,-360 1064.8589,-343.2199 1079.7242,-328.8391 1091.9709,-319.1469"/>
</g>
<!-- YQ&#45;&#45;NQ -->
<g id="edge56" class="edge">
<title>YQ&#45;&#45;NQ</title>
<path fill="none" stroke="#000000" d="M1115.887,-506.3771C1126.622,-494.3003 1141.4119,-477.6616 1152.1401,-465.5924"/>
</g>
<!-- ZT -->
<g id="node54" class="node">
<title>ZT</title>
<ellipse fill="none" stroke="#000000" cx="607" cy="-378" rx="27" ry="18"/>
<text text-anchor="middle" x="607" y="-374.3" font-family="Times,serif" font-size="14.00" fill="#000000">ZT</text>
</g>
<!-- ZT&#45;&#45;AA -->
<g id="edge58" class="edge">
<title>ZT&#45;&#45;AA</title>
<path fill="none" stroke="#000000" d="M622.2693,-362.7307C634.488,-350.512 651.5398,-333.4602 663.7527,-321.2473"/>
</g>
<!-- GD -->
<g id="node55" class="node">
<title>GD</title>
<ellipse fill="none" stroke="#000000" cx="607" cy="-306" rx="27" ry="18"/>
<text text-anchor="middle" x="607" y="-302.3" font-family="Times,serif" font-size="14.00" fill="#000000">GD</text>
</g>
<!-- ZT&#45;&#45;GD -->
<g id="edge57" class="edge">
<title>ZT&#45;&#45;GD</title>
<path fill="none" stroke="#000000" d="M607,-359.8314C607,-349 607,-335.2876 607,-324.4133"/>
</g>
<!-- QM -->
<g id="node56" class="node">
<title>QM</title>
<ellipse fill="none" stroke="#000000" cx="984" cy="-378" rx="27" ry="18"/>
<text text-anchor="middle" x="984" y="-374.3" font-family="Times,serif" font-size="14.00" fill="#000000">QM</text>
</g>
<!-- QM&#45;&#45;MO -->
<g id="edge59" class="edge">
<title>QM&#45;&#45;MO</title>
<path fill="none" stroke="#000000" d="M966.4165,-363.7751C950.7122,-351.0706 927.8441,-332.5705 912.2442,-319.9503"/>
</g>
<!-- QM&#45;&#45;SA -->
<g id="edge60" class="edge">
<title>QM&#45;&#45;SA</title>
<path fill="none" stroke="#000000" d="M996.4804,-361.6621C1005.4814,-349.8788 1017.5793,-334.0416 1026.569,-322.2733"/>
</g>
<!-- NT -->
<g id="node57" class="node">
<title>NT</title>
<ellipse fill="none" stroke="#000000" cx="463" cy="-378" rx="27" ry="18"/>
<text text-anchor="middle" x="463" y="-374.3" font-family="Times,serif" font-size="14.00" fill="#000000">NT</text>
</g>
<!-- NT&#45;&#45;WU -->
<g id="edge61" class="edge">
<title>NT&#45;&#45;WU</title>
<path fill="none" stroke="#000000" d="M447.7307,-362.7307C435.512,-350.512 418.4602,-333.4602 406.2473,-321.2473"/>
</g>
<!-- NT&#45;&#45;JF -->
<g id="edge62" class="edge">
<title>NT&#45;&#45;JF</title>
<path fill="none" stroke="#000000" d="M441.1295,-367.0647C413.9066,-353.4533 367.703,-330.3515 340.6045,-316.8022"/>
</g>
<!-- NT&#45;&#45;UX -->
<g id="edge64" class="edge">
<title>NT&#45;&#45;UX</title>
<path fill="none" stroke="#000000" d="M463,-359.8314C463,-349 463,-335.2876 463,-324.4133"/>
</g>
<!-- NT&#45;&#45;GD -->
<g id="edge63" class="edge">
<title>NT&#45;&#45;GD</title>
<path fill="none" stroke="#000000" d="M484.8705,-367.0647C512.0934,-353.4533 558.297,-330.3515 585.3955,-316.8022"/>
</g>
<!-- JK -->
<g id="node58" class="node">
<title>JK</title>
<ellipse fill="none" stroke="#000000" cx="1094" cy="-450" rx="27" ry="18"/>
<text text-anchor="middle" x="1094" y="-446.3" font-family="Times,serif" font-size="14.00" fill="#000000">JK</text>
</g>
<!-- JK&#45;&#45;SX -->
<g id="edge66" class="edge">
<title>JK&#45;&#45;SX</title>
<path fill="none" stroke="#000000" d="M1115.8705,-439.0647C1143.0934,-425.4533 1189.297,-402.3515 1216.3955,-388.8022"/>
</g>
<!-- JK&#45;&#45;KD -->
<g id="edge65" class="edge">
<title>JK&#45;&#45;KD</title>
<path fill="none" stroke="#000000" d="M1094,-431.8314C1094,-421 1094,-407.2876 1094,-396.4133"/>
</g>
<!-- SL -->
<g id="node59" class="node">
<title>SL</title>
<ellipse fill="none" stroke="#000000" cx="984" cy="-450" rx="27" ry="18"/>
<text text-anchor="middle" x="984" y="-446.3" font-family="Times,serif" font-size="14.00" fill="#000000">SL</text>
</g>
<!-- SL&#45;&#45;DG -->
<g id="edge67" class="edge">
<title>SL&#45;&#45;DG</title>
<path fill="none" stroke="#000000" d="M1009.1906,-443.1152C1023.4317,-439.4143 1041.6141,-435.0068 1058,-432 1184.8777,-408.7178 1222.5388,-433.381 1346,-396 1351.0828,-394.4611 1356.3205,-392.2494 1361.1732,-389.9002"/>
</g>
<!-- SL&#45;&#45;QM -->
<g id="edge68" class="edge">
<title>SL&#45;&#45;QM</title>
<path fill="none" stroke="#000000" d="M984,-431.8314C984,-421 984,-407.2876 984,-396.4133"/>
</g>
<!-- WI -->
<g id="node60" class="node">
<title>WI</title>
<ellipse fill="none" stroke="#000000" cx="273" cy="-450" rx="27" ry="18"/>
<text text-anchor="middle" x="273" y="-446.3" font-family="Times,serif" font-size="14.00" fill="#000000">WI</text>
</g>
<!-- WI&#45;&#45;NW -->
<g id="edge69" class="edge">
<title>WI&#45;&#45;NW</title>
<path fill="none" stroke="#000000" d="M293.0171,-437.7862C314.7158,-424.5463 349.1477,-403.537 370.8847,-390.2737"/>
</g>
<!-- WI&#45;&#45;KU -->
<g id="edge70" class="edge">
<title>WI&#45;&#45;KU</title>
<path fill="none" stroke="#000000" d="M248.1388,-442.2289C226.8957,-434.2097 197.3987,-419.5139 182,-396 155.6119,-355.7053 159.0421,-334.0997 173,-288 177.3099,-273.7653 186.7465,-259.8532 194.8771,-249.7156"/>
</g>
<!-- EO -->
<g id="node61" class="node">
<title>EO</title>
<ellipse fill="none" stroke="#000000" cx="895" cy="-450" rx="27" ry="18"/>
<text text-anchor="middle" x="895" y="-446.3" font-family="Times,serif" font-size="14.00" fill="#000000">EO</text>
</g>
<!-- EO&#45;&#45;YB -->
<g id="edge71" class="edge">
<title>EO&#45;&#45;YB</title>
<path fill="none" stroke="#000000" d="M886.4579,-432.9158C872.6754,-405.3508 845.6732,-351.3463 831.7555,-323.511"/>
</g>
<!-- EO&#45;&#45;QM -->
<g id="edge72" class="edge">
<title>EO&#45;&#45;QM</title>
<path fill="none" stroke="#000000" d="M912.5835,-435.7751C928.2878,-423.0706 951.1559,-404.5705 966.7558,-391.9503"/>
</g>
<!-- DW -->
<g id="node62" class="node">
<title>DW</title>
<ellipse fill="none" stroke="#000000" cx="1397" cy="-450" rx="27" ry="18"/>
<text text-anchor="middle" x="1397" y="-446.3" font-family="Times,serif" font-size="14.00" fill="#000000">DW</text>
</g>
<!-- DW&#45;&#45;QL -->
<g id="edge73" class="edge">
<title>DW&#45;&#45;QL</title>
<path fill="none" stroke="#000000" d="M1419.8705,-440.1397C1451.7614,-426.3903 1509.2522,-401.6038 1541.1384,-387.8565"/>
</g>
<!-- DW&#45;&#45;QM -->
<g id="edge74" class="edge">
<title>DW&#45;&#45;QM</title>
<path fill="none" stroke="#000000" d="M1370.4967,-446.52C1313.2129,-438.836 1173.6883,-419.2449 1058,-396 1041.6669,-392.7182 1023.4853,-388.3065 1009.2315,-384.6721"/>
</g>
<!-- DX -->
<g id="node63" class="node">
<title>DX</title>
<ellipse fill="none" stroke="#000000" cx="1771" cy="-450" rx="27" ry="18"/>
<text text-anchor="middle" x="1771" y="-446.3" font-family="Times,serif" font-size="14.00" fill="#000000">DX</text>
</g>
<!-- DX&#45;&#45;EU -->
<g id="edge75" class="edge">
<title>DX&#45;&#45;EU</title>
<path fill="none" stroke="#000000" d="M1787.669,-435.8148C1798.003,-425.8704 1810.35,-411.6055 1816,-396 1821.4468,-380.9557 1823.1554,-374.3108 1816,-360 1805.7979,-339.5959 1783.8141,-324.9014 1766.8054,-316.0405"/>
</g>
<!-- DX&#45;&#45;QL -->
<g id="edge76" class="edge">
<title>DX&#45;&#45;QL</title>
<path fill="none" stroke="#000000" d="M1745.6421,-443.3445C1711.8646,-434.1748 1650.4987,-416.4493 1600,-396 1595.2072,-394.0592 1590.1771,-391.7363 1585.4475,-389.4145"/>
</g>
<!-- RZ -->
<g id="node64" class="node">
<title>RZ</title>
<ellipse fill="none" stroke="#000000" cx="663" cy="-450" rx="27" ry="18"/>
<text text-anchor="middle" x="663" y="-446.3" font-family="Times,serif" font-size="14.00" fill="#000000">RZ</text>
</g>
<!-- RZ&#45;&#45;KF -->
<g id="edge77" class="edge">
<title>RZ&#45;&#45;KF</title>
<path fill="none" stroke="#000000" d="M683.5245,-438.2717C706.955,-424.8829 745.0575,-403.11 768.4843,-389.7233"/>
</g>
<!-- RZ&#45;&#45;NT -->
<g id="edge78" class="edge">
<title>RZ&#45;&#45;NT</title>
<path fill="none" stroke="#000000" d="M637.8629,-442.9637C605.3219,-433.5747 547.0858,-415.8147 499,-396 494.2191,-394.0299 489.1941,-391.6948 484.4656,-389.3702"/>
</g>
<!-- TY -->
<g id="node65" class="node">
<title>TY</title>
<ellipse fill="none" stroke="#000000" cx="590" cy="-522" rx="27" ry="18"/>
<text text-anchor="middle" x="590" y="-518.3" font-family="Times,serif" font-size="14.00" fill="#000000">TY</text>
</g>
<!-- TY&#45;&#45;NW -->
<g id="edge79" class="edge">
<title>TY&#45;&#45;NW</title>
<path fill="none" stroke="#000000" d="M571.6353,-508.7109C533.7249,-481.2784 447.1927,-418.662 409.3204,-391.2569"/>
</g>
<!-- TY&#45;&#45;PG -->
<g id="edge80" class="edge">
<title>TY&#45;&#45;PG</title>
<path fill="none" stroke="#000000" d="M612.6645,-511.9887C643.7186,-498.2715 699.1753,-473.7753 730.2659,-460.0421"/>
</g>
<!-- ZZ -->
<g id="node66" class="node">
<title>ZZ</title>
<ellipse fill="none" stroke="#000000" cx="1636" cy="-450" rx="27" ry="18"/>
<text text-anchor="middle" x="1636" y="-446.3" font-family="Times,serif" font-size="14.00" fill="#000000">ZZ</text>
</g>
<!-- ZZ&#45;&#45;NC -->
<g id="edge81" class="edge">
<title>ZZ&#45;&#45;NC</title>
<path fill="none" stroke="#000000" d="M1657.8705,-439.0647C1685.0934,-425.4533 1731.297,-402.3515 1758.3955,-388.8022"/>
</g>
<!-- ZZ&#45;&#45;XY -->
<g id="edge82" class="edge">
<title>ZZ&#45;&#45;XY</title>
<path fill="none" stroke="#000000" d="M1612.5636,-440.6723C1589.91,-431.118 1555.129,-415.0019 1528,-396 1508.9448,-382.6533 1508.4224,-374.2074 1490,-360 1468.7435,-343.6069 1442.2944,-327.7651 1424.1738,-317.5276"/>
</g>
</g>
</svg>
