<?xml version="1.0" encoding="UTF-8" standalone="no"?>
<!DOCTYPE svg PUBLIC "-//W3C//DTD SVG 1.1//EN"
 "http://www.w3.org/Graphics/SVG/1.1/DTD/svg11.dtd">
<!-- Generated by graphviz version 2.40.1 (20161225.0304)
 -->
<!-- Title: %3 Pages: 1 -->
<svg width="235pt" height="404pt"
 viewBox="0.00 0.00 234.93 404.00" xmlns="http://www.w3.org/2000/svg" xmlns:xlink="http://www.w3.org/1999/xlink">
<g id="graph0" class="graph" transform="scale(1 1) rotate(0) translate(4 400)">
<title>%3</title>
<polygon fill="#ffffff" stroke="transparent" points="-4,4 -4,-400 230.9282,-400 230.9282,4 -4,4"/>
<!-- AA -->
<g id="node1" class="node">
<title>AA</title>
<ellipse fill="none" stroke="#000000" cx="171" cy="-378" rx="27" ry="18"/>
<text text-anchor="middle" x="171" y="-374.3" font-family="Times,serif" font-size="14.00" fill="#000000">AA</text>
</g>
<!-- DD -->
<g id="node2" class="node">
<title>DD</title>
<ellipse fill="none" stroke="#000000" cx="99" cy="-306" rx="27" ry="18"/>
<text text-anchor="middle" x="99" y="-302.3" font-family="Times,serif" font-size="14.00" fill="#000000">DD</text>
</g>
<!-- AA&#45;&#45;DD -->
<g id="edge1" class="edge">
<title>AA&#45;&#45;DD</title>
<path fill="none" stroke="#000000" d="M152.43,-364.7941C138.8858,-352.9397 121.2851,-335.4836 109.8732,-322.6709"/>
</g>
<!-- II -->
<g id="node3" class="node">
<title>II</title>
<ellipse fill="none" stroke="#000000" cx="171" cy="-306" rx="27" ry="18"/>
<text text-anchor="middle" x="171" y="-302.3" font-family="Times,serif" font-size="14.00" fill="#000000">II</text>
</g>
<!-- AA&#45;&#45;II -->
<g id="edge2" class="edge">
<title>AA&#45;&#45;II</title>
<path fill="none" stroke="#000000" d="M165.0843,-360.2022C163.9651,-349.0419 163.972,-334.7143 165.105,-323.593"/>
</g>
<!-- BB -->
<g id="node4" class="node">
<title>BB</title>
<ellipse fill="none" stroke="#000000" cx="167" cy="-162" rx="27" ry="18"/>
<text text-anchor="middle" x="167" y="-158.3" font-family="Times,serif" font-size="14.00" fill="#000000">BB</text>
</g>
<!-- AA&#45;&#45;BB -->
<g id="edge3" class="edge">
<title>AA&#45;&#45;BB</title>
<path fill="none" stroke="#000000" d="M178.637,-360.4004C185.3785,-350.4593 193.9513,-337.372 198,-324 211.9096,-278.0596 213.0433,-261.5818 198,-216 193.466,-202.2619 183.9396,-189.1632 176.3437,-179.3076"/>
</g>
<!-- DD&#45;&#45;AA -->
<g id="edge9" class="edge">
<title>DD&#45;&#45;AA</title>
<path fill="none" stroke="#000000" d="M117.6179,-319.2478C131.1457,-331.0927 148.7024,-348.5058 160.1016,-361.3008"/>
</g>
<!-- CC -->
<g id="node5" class="node">
<title>CC</title>
<ellipse fill="none" stroke="#000000" cx="99" cy="-234" rx="27" ry="18"/>
<text text-anchor="middle" x="99" y="-230.3" font-family="Times,serif" font-size="14.00" fill="#000000">CC</text>
</g>
<!-- DD&#45;&#45;CC -->
<g id="edge8" class="edge">
<title>DD&#45;&#45;CC</title>
<path fill="none" stroke="#000000" d="M93.0843,-288.2022C91.9651,-277.0419 91.972,-262.7143 93.105,-251.593"/>
</g>
<!-- EE -->
<g id="node6" class="node">
<title>EE</title>
<ellipse fill="none" stroke="#000000" cx="27" cy="-234" rx="27" ry="18"/>
<text text-anchor="middle" x="27" y="-230.3" font-family="Times,serif" font-size="14.00" fill="#000000">EE</text>
</g>
<!-- DD&#45;&#45;EE -->
<g id="edge10" class="edge">
<title>DD&#45;&#45;EE</title>
<path fill="none" stroke="#000000" d="M80.43,-292.7941C66.8858,-280.9397 49.2851,-263.4836 37.8732,-250.6709"/>
</g>
<!-- II&#45;&#45;AA -->
<g id="edge18" class="edge">
<title>II&#45;&#45;AA</title>
<path fill="none" stroke="#000000" d="M176.895,-323.593C178.028,-334.7143 178.0349,-349.0419 176.9157,-360.2022"/>
</g>
<!-- JJ -->
<g id="node10" class="node">
<title>JJ</title>
<ellipse fill="none" stroke="#000000" cx="171" cy="-234" rx="27" ry="18"/>
<text text-anchor="middle" x="171" y="-230.3" font-family="Times,serif" font-size="14.00" fill="#000000">JJ</text>
</g>
<!-- II&#45;&#45;JJ -->
<g id="edge19" class="edge">
<title>II&#45;&#45;JJ</title>
<path fill="none" stroke="#000000" d="M165.0843,-288.2022C163.9651,-277.0419 163.972,-262.7143 165.105,-251.593"/>
</g>
<!-- BB&#45;&#45;AA -->
<g id="edge5" class="edge">
<title>BB&#45;&#45;AA</title>
<path fill="none" stroke="#000000" d="M187.1827,-174.3827C198.4021,-184.5354 210.6616,-199.8245 216,-216 231.0433,-261.5818 229.9096,-278.0596 216,-324 211.2983,-339.5288 200.4954,-354.6736 190.3409,-364.9531"/>
</g>
<!-- BB&#45;&#45;CC -->
<g id="edge4" class="edge">
<title>BB&#45;&#45;CC</title>
<path fill="none" stroke="#000000" d="M156.9642,-178.7772C146.3622,-191.4589 129.9992,-208.644 117.2017,-220.4574"/>
</g>
<!-- CC&#45;&#45;DD -->
<g id="edge6" class="edge">
<title>CC&#45;&#45;DD</title>
<path fill="none" stroke="#000000" d="M104.895,-251.593C106.028,-262.7143 106.0349,-277.0419 104.9157,-288.2022"/>
</g>
<!-- CC&#45;&#45;BB -->
<g id="edge7" class="edge">
<title>CC&#45;&#45;BB</title>
<path fill="none" stroke="#000000" d="M109.2751,-216.937C119.8732,-204.2953 136.0674,-187.2981 148.7639,-175.5744"/>
</g>
<!-- EE&#45;&#45;DD -->
<g id="edge12" class="edge">
<title>EE&#45;&#45;DD</title>
<path fill="none" stroke="#000000" d="M45.6179,-247.2478C59.1457,-259.0927 76.7024,-276.5058 88.1016,-289.3008"/>
</g>
<!-- FF -->
<g id="node7" class="node">
<title>FF</title>
<ellipse fill="none" stroke="#000000" cx="27" cy="-162" rx="27" ry="18"/>
<text text-anchor="middle" x="27" y="-158.3" font-family="Times,serif" font-size="14.00" fill="#000000">FF</text>
</g>
<!-- EE&#45;&#45;FF -->
<g id="edge11" class="edge">
<title>EE&#45;&#45;FF</title>
<path fill="none" stroke="#000000" d="M21.0843,-216.2022C19.9651,-205.0419 19.972,-190.7143 21.105,-179.593"/>
</g>
<!-- FF&#45;&#45;EE -->
<g id="edge13" class="edge">
<title>FF&#45;&#45;EE</title>
<path fill="none" stroke="#000000" d="M32.895,-179.593C34.028,-190.7143 34.0349,-205.0419 32.9157,-216.2022"/>
</g>
<!-- GG -->
<g id="node8" class="node">
<title>GG</title>
<ellipse fill="none" stroke="#000000" cx="27" cy="-90" rx="27" ry="18"/>
<text text-anchor="middle" x="27" y="-86.3" font-family="Times,serif" font-size="14.00" fill="#000000">GG</text>
</g>
<!-- FF&#45;&#45;GG -->
<g id="edge14" class="edge">
<title>FF&#45;&#45;GG</title>
<path fill="none" stroke="#000000" d="M21.0843,-144.2022C19.9651,-133.0419 19.972,-118.7143 21.105,-107.593"/>
</g>
<!-- GG&#45;&#45;FF -->
<g id="edge15" class="edge">
<title>GG&#45;&#45;FF</title>
<path fill="none" stroke="#000000" d="M32.895,-107.593C34.028,-118.7143 34.0349,-133.0419 32.9157,-144.2022"/>
</g>
<!-- HH -->
<g id="node9" class="node">
<title>HH</title>
<ellipse fill="none" stroke="#000000" cx="27" cy="-18" rx="27" ry="18"/>
<text text-anchor="middle" x="27" y="-14.3" font-family="Times,serif" font-size="14.00" fill="#000000">HH</text>
</g>
<!-- GG&#45;&#45;HH -->
<g id="edge16" class="edge">
<title>GG&#45;&#45;HH</title>
<path fill="none" stroke="#000000" d="M21.0843,-72.2022C19.9651,-61.0419 19.972,-46.7143 21.105,-35.593"/>
</g>
<!-- HH&#45;&#45;GG -->
<g id="edge17" class="edge">
<title>HH&#45;&#45;GG</title>
<path fill="none" stroke="#000000" d="M32.895,-35.593C34.028,-46.7143 34.0349,-61.0419 32.9157,-72.2022"/>
</g>
<!-- JJ&#45;&#45;II -->
<g id="edge20" class="edge">
<title>JJ&#45;&#45;II</title>
<path fill="none" stroke="#000000" d="M176.895,-251.593C178.028,-262.7143 178.0349,-277.0419 176.9157,-288.2022"/>
</g>
</g>
</svg>
